<?xml version="1.0" standalone="no"?>
<!DOCTYPE svg PUBLIC "-//W3C//DTD SVG 20010904//EN"
 "http://www.w3.org/TR/2001/REC-SVG-20010904/DTD/svg10.dtd">
<svg version="1.0" xmlns="http://www.w3.org/2000/svg"
 width="2000.000000pt" height="2000.000000pt" viewBox="0 0 2000.000000 2000.000000"
 preserveAspectRatio="xMidYMid meet">

<g transform="translate(0.000000,2000.000000) scale(0.100000,-0.100000)"
fill="#000000" stroke="none">
<path d="M9790 18173 c0 -63 -20 -943 -32 -1406 l-3 -97 98 0 97 0 0 128 c0
70 3 211 7 314 l6 187 211 -1 c191 -2 219 0 291 21 206 58 318 180 346 375 30
223 -48 396 -216 472 -113 52 -192 64 -475 74 -146 5 -280 9 -297 10 l-33 0 0
-77z m451 -93 c214 -15 306 -56 355 -157 25 -50 28 -68 27 -143 -1 -156 -60
-250 -189 -301 -55 -21 -74 -23 -263 -23 l-203 -1 1 130 c0 72 4 214 7 318 l7
187 61 0 c34 0 122 -5 197 -10z"/>
<path d="M8002 18140 c-45 -10 -85 -20 -89 -24 -5 -5 314 -1662 322 -1674 2
-2 49 7 123 23 20 5 22 11 22 65 0 68 5 71 64 36 101 -59 257 -74 363 -35 200
75 324 271 325 514 2 372 -188 662 -447 683 -146 11 -258 -34 -384 -155 -47
-45 -86 -81 -87 -80 -1 1 -7 40 -13 87 -15 106 -99 539 -109 561 -6 14 -15 14
-90 -1z m690 -592 c90 -27 174 -143 219 -303 30 -106 33 -283 6 -366 -26 -77
-81 -146 -146 -183 -76 -42 -197 -49 -295 -16 -36 12 -75 29 -86 38 -15 14
-31 75 -77 315 -65 339 -68 306 27 403 89 90 155 123 254 124 32 0 76 -5 98
-12z"/>
<path d="M11700 17634 c-34 -7 -184 -46 -188 -49 -2 -2 6 -34 17 -72 l21 -69
87 22 c166 43 317 27 393 -42 56 -51 74 -106 67 -205 -3 -44 -7 -83 -10 -85
-3 -3 -52 0 -109 7 -142 16 -365 7 -438 -19 -132 -46 -202 -108 -240 -210 -25
-65 -29 -170 -10 -228 53 -162 257 -256 452 -210 57 13 95 27 207 73 12 5 13
-6 7 -69 l-7 -75 73 -16 c40 -9 74 -14 76 -12 6 5 161 655 178 745 48 250 -43
429 -252 496 -49 15 -272 28 -324 18z m298 -620 c53 -5 62 -8 58 -22 -3 -10
-21 -82 -41 -161 -19 -80 -41 -148 -47 -153 -7 -4 -47 -22 -88 -40 -65 -28
-87 -32 -165 -33 -79 0 -97 3 -147 28 -80 39 -103 75 -103 157 0 50 6 75 24
107 64 113 200 144 509 117z"/>
<path d="M13246 17356 l-77 -145 -85 30 c-47 17 -87 30 -89 28 -6 -7 -55 -122
-53 -125 2 -1 38 -17 80 -36 l77 -34 -140 -319 c-156 -357 -172 -402 -173
-496 -1 -157 112 -265 319 -304 42 -8 80 -15 85 -15 4 0 11 24 14 53 4 28 9
61 12 73 5 19 0 22 -49 27 -66 7 -125 35 -162 79 -25 29 -27 37 -23 102 3 65
15 96 142 386 76 173 142 319 147 324 5 6 62 -14 145 -50 75 -32 140 -60 143
-62 7 -2 61 116 61 133 0 6 -63 37 -140 70 -77 33 -140 64 -140 68 0 5 27 71
60 147 33 76 60 142 60 146 0 8 -36 25 -126 61 -7 2 -44 -58 -88 -141z"/>
<path d="M6910 17232 c-135 -45 -271 -147 -376 -283 l-42 -55 53 -42 c29 -23
57 -42 62 -42 5 0 26 22 47 50 55 72 146 153 202 179 26 13 74 28 106 34 54
10 60 9 115 -19 44 -23 66 -43 100 -92 24 -35 43 -71 43 -80 0 -11 -34 -37
-88 -69 -189 -111 -347 -256 -396 -363 -32 -70 -29 -197 6 -270 38 -77 77
-121 139 -155 49 -27 62 -30 149 -30 88 0 101 3 163 33 80 40 156 111 215 202
75 117 65 112 102 47 17 -31 35 -59 39 -61 13 -9 136 52 133 65 -10 47 -313
733 -344 780 -48 71 -118 135 -178 162 -64 28 -179 32 -250 9z m435 -634 l62
-146 -36 -68 c-70 -132 -180 -215 -296 -222 -79 -4 -119 17 -158 87 -58 103
-35 199 72 305 63 62 258 197 280 193 7 -1 41 -68 76 -149z"/>
<path d="M14520 17088 c-16 -24 -232 -342 -479 -708 l-449 -664 76 -52 c58
-39 80 -49 89 -40 6 6 115 165 243 354 127 188 237 342 243 342 7 0 53 5 103
10 109 11 181 -3 250 -51 102 -70 123 -161 66 -282 -16 -36 -125 -205 -241
-377 -116 -172 -211 -315 -211 -319 0 -13 151 -104 159 -95 4 5 99 144 211
309 276 408 310 475 312 610 2 116 -76 224 -206 288 -80 39 -153 49 -271 37
-54 -6 -100 -8 -103 -6 -2 3 32 53 75 113 85 115 312 449 316 463 2 8 -135
110 -148 110 -3 0 -19 -19 -35 -42z"/>
<path d="M4958 16572 c-37 -26 -67 -50 -68 -55 0 -12 882 -1287 891 -1287 9 0
686 464 707 484 12 12 7 24 -30 79 l-43 65 -283 -194 c-156 -107 -287 -192
-291 -190 -5 3 -185 262 -401 576 -216 313 -398 570 -404 569 -6 0 -41 -21
-78 -47z"/>
<path d="M14055 5179 c-159 -126 -291 -234 -293 -239 -3 -9 392 -595 406 -604
4 -2 32 -1 64 1 l56 5 22 60 c39 107 146 212 243 239 124 34 238 -2 337 -108
162 -172 170 -370 23 -517 -89 -88 -261 -147 -385 -133 l-48 6 0 -81 0 -81
118 6 c189 9 315 62 442 187 166 164 206 391 104 593 -113 222 -332 356 -519
318 -145 -30 -304 -142 -356 -251 -13 -27 -26 -50 -29 -50 -8 0 -250 375 -249
386 0 5 103 90 229 189 140 109 226 184 222 190 -14 24 -87 114 -92 114 -3 0
-135 -103 -295 -230z"/>
<path d="M5563 5241 c-71 -24 -129 -66 -175 -128 -57 -75 -78 -138 -78 -233 0
-99 31 -190 123 -358 185 -336 199 -398 119 -513 -65 -93 -181 -131 -290 -95
-69 23 -183 106 -232 167 -55 70 -106 180 -122 262 -11 57 -16 67 -33 67 -24
-1 -144 -26 -150 -32 -8 -8 24 -137 48 -198 59 -144 163 -270 292 -352 136
-86 245 -115 373 -97 238 33 406 272 348 499 -17 67 -45 127 -183 390 -118
227 -126 296 -46 389 76 89 173 104 291 45 130 -64 226 -186 263 -332 11 -46
16 -53 34 -48 11 3 46 11 77 18 56 12 57 12 52 42 -10 58 -46 161 -77 216 -17
30 -67 91 -111 135 -125 123 -241 175 -390 175 -51 -1 -100 -7 -133 -19z"/>
<path d="M6594 4715 c-83 -88 -36 -201 87 -213 45 -4 51 -2 83 30 88 88 33
218 -93 218 -37 0 -49 -5 -77 -35z"/>
<path d="M13201 4614 c-134 -36 -275 -142 -338 -254 -28 -50 -83 -189 -83
-210 0 -5 26 -16 58 -25 31 -9 64 -18 73 -21 13 -3 18 5 24 33 12 65 70 176
114 220 169 168 392 126 496 -94 49 -105 60 -165 59 -328 -1 -121 -6 -175 -27
-277 -31 -146 -100 -390 -150 -528 l-35 -96 24 -39 c13 -22 25 -44 27 -49 3
-10 867 461 867 473 0 3 -17 36 -38 73 l-37 66 -225 -125 c-124 -69 -259 -147
-300 -174 -41 -26 -76 -47 -77 -45 -2 1 9 41 23 87 79 262 124 512 124 692 0
198 -44 346 -140 473 -98 130 -279 191 -439 148z"/>
<path d="M6111 3849 c-161 -275 -292 -502 -290 -503 13 -12 161 -98 163 -95
14 19 587 1002 584 1004 -5 4 -159 95 -161 95 -1 -1 -134 -226 -296 -501z"/>
<path d="M12205 4159 c-182 -30 -303 -139 -351 -316 -83 -314 147 -975 410
-1173 169 -128 388 -117 547 27 48 43 105 157 120 238 14 76 6 276 -16 375
-42 193 -153 465 -244 598 -47 70 -150 170 -211 204 -74 43 -172 61 -255 47z
m141 -170 c118 -55 237 -242 332 -519 65 -191 85 -289 86 -425 1 -112 -1 -124
-27 -178 -68 -139 -221 -173 -348 -77 -113 85 -211 256 -298 518 -89 268 -104
459 -46 577 57 118 180 161 301 104z"/>
<path d="M6890 4057 c0 -2 -99 -239 -220 -527 -121 -288 -220 -528 -220 -534
0 -15 161 -79 171 -69 4 4 78 177 164 383 86 206 164 381 173 388 30 23 176
64 232 64 109 2 214 -54 245 -130 37 -87 19 -150 -164 -585 -78 -187 -140
-341 -137 -345 14 -13 161 -70 167 -64 12 12 307 726 322 778 53 181 17 325
-103 405 -136 92 -255 102 -458 37 -35 -11 -65 -18 -67 -16 -3 2 6 39 19 82
l24 78 -65 29 c-60 27 -83 34 -83 26z"/>
<path d="M11045 3869 c-131 -19 -235 -71 -321 -161 -73 -76 -118 -138 -108
-147 5 -5 33 -24 63 -44 l55 -36 42 58 c78 107 171 166 281 177 120 13 224
-43 275 -148 102 -208 30 -489 -220 -863 -56 -82 -142 -202 -192 -265 l-91
-115 6 -54 c3 -30 7 -56 9 -58 3 -3 967 157 973 161 8 6 -24 149 -34 153 -17
7 -421 -61 -556 -93 -60 -14 -110 -24 -112 -22 -2 2 28 49 67 103 150 209 265
413 322 575 89 247 70 488 -48 629 -102 122 -245 174 -411 150z"/>
<path d="M8285 3521 c-217 -62 -360 -227 -415 -479 -49 -219 -6 -411 122 -548
116 -123 297 -186 469 -162 67 9 174 41 192 58 4 4 -4 39 -19 78 l-26 71 -32
-16 c-160 -83 -365 -41 -457 93 -51 75 -72 147 -72 249 0 270 155 487 363 511
108 12 236 -42 298 -125 l23 -31 57 46 c31 25 58 50 60 54 2 5 -26 38 -61 74
-125 128 -325 178 -502 127z"/>
<path d="M9409 3372 c-183 -48 -333 -214 -386 -427 -26 -108 -24 -289 6 -385
59 -194 193 -325 381 -375 73 -20 240 -19 315 0 69 18 175 64 175 76 0 4 -12
35 -26 67 l-26 60 -63 -29 c-155 -70 -329 -55 -452 38 -77 59 -143 201 -143
310 l0 55 53 -6 c129 -14 728 -48 735 -42 4 4 7 78 6 164 -1 174 -13 227 -75
323 -99 155 -299 223 -500 171z m262 -161 c98 -51 146 -135 156 -276 6 -85 6
-85 -18 -85 -13 0 -148 9 -299 20 -151 11 -283 20 -292 20 -57 0 29 197 119
274 18 16 59 39 91 53 73 31 177 28 243 -6z"/>
</g>
</svg>
